<svg width="12" height="13" viewBox="0 0 12 13" fill="none" xmlns="http://www.w3.org/2000/svg">
<path d="M11.6094 2.61266C11.5277 2.53194 11.4295 2.46782 11.3208 2.42421C11.2121 2.38059 11.0952 2.3584 10.9771 2.35898H10.0714V1.71766C10.0735 1.577 10.0451 1.43744 9.98802 1.30758C9.93093 1.17771 9.84634 1.0603 9.73948 0.962588C9.63622 0.861539 9.51219 0.781587 9.37504 0.727661C9.23789 0.673734 9.09053 0.646976 8.94205 0.649036H8.49078C8.34223 0.647073 8.19484 0.673949 8.05769 0.728005C7.92054 0.782061 7.79654 0.862152 7.69335 0.963336C7.58645 1.06102 7.50184 1.17843 7.44475 1.3083C7.38765 1.43817 7.35929 1.57775 7.36141 1.7184V2.35972H4.65141V1.71766C4.65348 1.577 4.6251 1.43744 4.56801 1.30758C4.51092 1.17771 4.42633 1.0603 4.31947 0.962588C4.2163 0.861631 4.0924 0.781733 3.95539 0.72781C3.81839 0.673887 3.67118 0.647079 3.52283 0.649036H3.07156C2.92302 0.647073 2.77562 0.673949 2.63847 0.728005C2.50132 0.782061 2.37732 0.862152 2.27412 0.963336C2.16726 1.06105 2.08268 1.17846 2.02559 1.30833C1.9685 1.43819 1.94012 1.57775 1.94219 1.7184V2.35972H1.03886C0.9208 2.35914 0.803857 2.38134 0.695156 2.42495C0.586455 2.46857 0.488274 2.53269 0.406601 2.61341C0.321353 2.69074 0.253633 2.78371 0.207571 2.88663C0.161509 2.98956 0.13807 3.10029 0.138682 3.21207V11.7663C0.14173 11.9918 0.237427 12.2073 0.405477 12.3671C0.573526 12.5269 0.800711 12.6185 1.03886 12.6224H10.974C11.2125 12.6193 11.4404 12.5281 11.6091 12.3684C11.7778 12.2087 11.874 11.9929 11.8773 11.767V3.21432C11.8783 3.10203 11.8551 2.99073 11.809 2.88726C11.763 2.78379 11.695 2.69034 11.6094 2.61266ZM3.07393 11.7663H1.03886V9.8423H3.07077L3.07393 11.7663ZM3.07393 9.41426H1.03886V7.27627H3.07077L3.07393 9.41426ZM3.07393 6.84822H1.03886V4.92426H3.07077L3.07393 6.84822ZM2.91586 3.79128C2.89448 3.77199 2.87749 3.74877 2.86594 3.72303C2.85438 3.69729 2.84851 3.66958 2.84869 3.64162V1.71766C2.84951 1.66113 2.87358 1.60714 2.91579 1.56717C2.95801 1.5272 3.01503 1.50441 3.07472 1.50363H3.52283C3.58252 1.50441 3.63954 1.5272 3.68175 1.56717C3.72397 1.60714 3.74804 1.66113 3.74886 1.71766V3.64237C3.74804 3.69889 3.72397 3.75288 3.68175 3.79285C3.63954 3.83282 3.58252 3.85561 3.52283 3.85639H3.07156C3.04171 3.85662 3.01213 3.85102 2.98466 3.83995C2.95719 3.82888 2.93243 3.81257 2.91191 3.79203L2.91586 3.79128ZM5.78393 11.7655H3.52283V9.8423H5.78077L5.78393 11.7655ZM5.78393 9.41351H3.52283V7.27627H5.78077L5.78393 9.41351ZM5.78393 6.84747H3.52283V4.92426H5.78077L5.78393 6.84747ZM8.49394 11.7648H6.23205V9.8423H8.48999L8.49394 11.7648ZM8.49394 9.41276H6.23205V7.27627H8.48999L8.49394 9.41276ZM8.49394 6.84673H6.23205V4.92426H8.48999L8.49394 6.84673ZM8.33587 3.78979C8.3141 3.77105 8.29656 3.74833 8.28434 3.72299C8.27211 3.69765 8.26545 3.67022 8.26475 3.64237V1.71766C8.26536 1.66107 8.28937 1.60698 8.33163 1.56696C8.37389 1.52695 8.43102 1.50422 8.49078 1.50363H8.94205C9.0018 1.50422 9.05894 1.52695 9.10119 1.56696C9.14345 1.60698 9.16746 1.66107 9.16808 1.71766V3.64237C9.16746 3.69895 9.14345 3.75305 9.10119 3.79306C9.05894 3.83307 9.0018 3.8558 8.94205 3.85639H8.49078C8.46092 3.85666 8.43132 3.85109 8.40385 3.84001C8.37638 3.82894 8.35162 3.8126 8.33113 3.79203L8.33587 3.78979ZM10.9787 11.764H8.94205V9.8423H10.974L10.9787 11.764ZM10.9787 9.41201H8.94205V7.27627H10.974L10.9787 9.41201ZM10.9787 6.84598H8.94205V4.92426H10.974L10.9787 6.84598Z" fill="#333333"/>
</svg>
